<svg xmlns="http://www.w3.org/2000/svg" version="1.1" xmlns:xlink="http://www.w3.org/1999/xlink" xmlns:svgjs="http://svgjs.dev/svgjs" width="1000" height="328" viewBox="0 0 1000 328"><g transform="matrix(1,0,0,1,-0.6060606060606233,-0.28822019086950945)"><svg viewBox="0 0 396 130" data-background-color="#ffffff" preserveAspectRatio="xMidYMid meet" height="328" width="1000" xmlns="http://www.w3.org/2000/svg" xmlns:xlink="http://www.w3.org/1999/xlink"><g id="tight-bounds" transform="matrix(1,0,0,1,0.2400000000000091,0.1142336122348695)"><svg viewBox="0 0 395.52 129.77153277553026" height="129.77153277553026" width="395.52"><g><svg viewBox="0 0 395.52 129.77153277553026" height="129.77153277553026" width="395.52"><g transform="matrix(1,0,0,1,0,80.20401343096951)"><svg viewBox="0 0 395.52 49.567519344560765" height="49.567519344560765" width="395.52"><g id="textblocktransform"><svg viewBox="0 0 395.52 49.567519344560765" height="49.567519344560765" width="395.52" id="textblock"><g><svg viewBox="0 0 395.52 49.567519344560765" height="49.567519344560765" width="395.52"><g transform="matrix(1,0,0,1,0,0)"><svg width="395.52" viewBox="-0.05 -40.3 329.53000000000003 41.3" height="49.567519344560765" data-palette-color="#096a2e"><path d="M60.6-37.55L56.15-34.05 44.3-1.65 38.4 0.9 30.6-22 23.55-1.65 17.65 0.9 4.7-34.35-0.05-37.1 1.05-39.35 15.25-39.35 15.25-37.55 11.65-34.85 22-6.1 29.1-26.35 26.35-34.35 21.75-37.05 22.85-39.3 38.1-39.3 38.1-37.5 33.55-34.15 42.8-6.15 52.8-33.9 44.1-37.05 45.25-39.3 60.6-39.3 60.6-37.55ZM80.3-2.3L79.2-0.05 63.5-0.05 63.5-1.85 68.2-5.55 68.2-35.35 62.9-37.05 64.05-39.3 79.75-39.3 79.75-37.5 75-33.75 75-4 80.3-2.3ZM118.75 0.9L115.84 0 85.5 0 85.5-1.8 90.19-5.5 90.19-35.35 84.89-37.05 86.05-39.3 101.75-39.3 101.75-37.5 97-33.8 97-2.55 109.55-2.55 117-13.5 118.75-12.85 118.75 0.9ZM145.59-39.75Q150.84-39.75 154.87-37.27 158.89-34.8 161.12-30.4 163.34-26 163.34-20.45L163.34-20.45Q163.34-14.75 159.97-9.93 156.59-5.1 151.59-2.27 146.59 0.55 142.04 0.55L142.04 0.55Q139.64 0.55 137.39 0.3L137.39 0.3Q133.49 0.05 131.49 0.05L131.49 0.05 124.84 0.05 124.84-1.75 129.54-5.45 129.54-35.35 124.24-37.05 125.39-39.3 131.44-39.3Q136.14-39.3 140.64-39.6L140.64-39.6Q144.04-39.8 145.59-39.8L145.59-39.8 145.59-39.75ZM143.44-3.4Q146.94-3.4 149.79-5.3 152.64-7.2 154.29-10.58 155.94-13.95 155.94-18.15L155.94-18.15Q155.94-23.2 154.39-27.33 152.84-31.45 149.64-33.9 146.44-36.35 141.69-36.35L141.69-36.35Q138.74-36.35 136.34-34.65L136.34-34.65 136.34-4.55Q139.39-3.35 143.44-3.35L143.44-3.35 143.44-3.4ZM207.59-2.3L206.44-0.05 196.84-0.05 186.14-17.7 183.79-19.35 184.64-21.05 187.34-21.05Q190.64-21.05 192.51-22.75 194.39-24.45 194.39-27.45L194.39-27.45Q194.39-31.35 192.26-33.88 190.14-36.4 186.04-36.4L186.04-36.4Q183.39-36.4 181.09-34.75L181.09-34.75 181.09-4 186.39-2.25 185.29 0 169.59 0 169.59-1.8 174.29-5.5 174.29-35.4 168.99-37.05 170.14-39.3 176.44-39.3Q180.99-39.3 185.29-39.6L185.29-39.6Q188.49-39.8 189.99-39.8L189.99-39.8Q193.44-39.8 196.14-38.45 198.84-37.1 200.31-34.77 201.79-32.45 201.79-29.7L201.79-29.7Q201.79-27.25 200.26-25 198.74-22.75 196.24-21.05 193.74-19.35 190.94-18.45L190.94-18.45 194.34-17.35 201.79-5.05 207.59-2.3ZM232.69-40.3Q238.09-40.3 242.24-37.75 246.39-35.2 248.66-30.7 250.94-26.2 250.94-20.5L250.94-20.5Q250.94-14.65 247.49-9.7 244.04-4.75 238.91-1.88 233.79 1 229.14 1L229.14 1Q223.79 1 219.64-1.53 215.49-4.05 213.21-8.55 210.94-13.05 210.94-18.75L210.94-18.75Q210.94-24.6 214.39-29.58 217.84-34.55 222.94-37.43 228.04-40.3 232.69-40.3L232.69-40.3ZM229.79-35.8Q226.59-35.8 223.96-33.9 221.34-32 219.81-28.65 218.29-25.3 218.29-21.15L218.29-21.15Q218.29-16.3 219.79-12.3 221.29-8.3 224.39-5.9 227.49-3.5 232.04-3.5L232.04-3.5Q235.24-3.5 237.86-5.4 240.49-7.3 242.01-10.65 243.54-14 243.54-18.15L243.54-18.15Q243.54-23.05 242.04-27.05 240.54-31.05 237.44-33.43 234.34-35.8 229.79-35.8L229.79-35.8ZM276.33-19.2Q279.58-19.2 281.46-21.05 283.33-22.9 283.33-26.15L283.33-26.15Q283.33-30.6 281.11-33.45 278.88-36.3 274.58-36.3L274.58-36.3Q271.28-36.3 268.69-34.45L268.69-34.45 268.69-4.3 276.63-2.2 275.49 0.05 257.19 0.05 257.19-1.75 261.88-5.45 261.88-35.35 256.58-37.05 257.74-39.3 264.03-39.3Q268.78-39.3 273.38-39.6L273.38-39.6Q276.88-39.8 278.49-39.8L278.49-39.8Q282.08-39.8 284.86-38.3 287.63-36.8 289.16-34.23 290.69-31.65 290.69-28.45L290.69-28.45Q290.69-24.95 288.08-21.83 285.49-18.7 281.49-16.95 277.49-15.2 273.63-15.4L273.63-15.4 271.33-17 272.49-19.25 276.28-19.25 276.33-19.2ZM329.48 0.95L326.58 0.05 296.28 0.05 296.28-1.75 300.98-5.45 300.98-35.3 295.68-37.05 296.83-39.3 326.08-39.3 328.98-40.2 328.98-28.45 327.23-27.85 321.23-36.75 307.78-36.75 307.78-21.35 315.23-21.35 318.88-27.6 320.68-27.6 320.68-12.55 318.43-11.4 315.28-18.8 307.78-18.8 307.78-2.55 320.98-2.55 327.73-12.5 329.48-11.85 329.48 0.95Z" opacity="1" transform="matrix(1,0,0,1,0,0)" fill="#096a2e" class="wordmark-text-0" data-fill-palette-color="primary" id="text-0"></path></svg></g></svg></g></svg></g></svg></g><g transform="matrix(1,0,0,1,129.81852913478676,0)"><svg viewBox="0 0 135.88294173042647 68.50231173418298" height="68.50231173418298" width="135.88294173042647"><g><svg xmlns="http://www.w3.org/2000/svg" xmlns:xlink="http://www.w3.org/1999/xlink" version="1.1" x="7.999999999999993" y="0" viewBox="0 21.429 100 57.14099999999999" enable-background="new 0 0 100 100" xml:space="preserve" height="68.50231173418298" width="119.88294173042648" class="icon-icon-0" data-fill-palette-color="accent" id="icon-0"><g fill="#096a2e" data-fill-palette-color="accent"><g fill="#096a2e" data-fill-palette-color="accent"><polygon points="40.685,56.518 45.338,56.518 37.657,43.757 41.499,43.757 32.534,28.867 23.574,43.757 27.412,43.757     19.734,56.518 24.388,56.518 14.249,73.371 28.676,73.371 28.676,78.57 36.397,78.57 36.397,73.371 50.826,73.371   " fill="#096a2e" data-fill-palette-color="accent"></polygon><polygon points="100,63.156 92.373,50.484 95.873,50.484 90.098,40.891 92.982,40.891 86.244,29.693 79.507,40.891 82.393,40.891     76.619,50.484 80.116,50.484 72.494,63.156 83.346,63.156 83.346,67.066 89.146,67.066 89.146,63.156   " fill="#096a2e" data-fill-palette-color="accent"></polygon><polygon points="59.357,53.387 59.357,50.044 68.637,50.044 62.116,39.209 65.109,39.209 60.175,31.006 62.641,31.006     56.88,21.429 51.115,31.006 53.586,31.006 48.646,39.209 51.643,39.209 45.121,50.044 54.396,50.044 54.396,53.387   " fill="#096a2e" data-fill-palette-color="accent"></polygon><polygon points="69.193,67.208 71.527,67.208 67.68,60.816 69.604,60.816 65.113,53.354 60.623,60.816 62.546,60.816     58.698,67.208 61.029,67.208 55.951,75.648 63.182,75.648 63.182,78.255 67.046,78.255 67.046,75.648 74.271,75.648   " fill="#096a2e" data-fill-palette-color="accent"></polygon><polygon points="18.323,59.895 13.242,51.451 15.578,51.451 11.73,45.06 13.651,45.06 9.164,37.599 4.674,45.06 6.597,45.06     2.747,51.451 5.083,51.451 0,59.895 7.226,59.895 7.226,62.5 11.095,62.5 11.095,59.895   " fill="#096a2e" data-fill-palette-color="accent"></polygon></g></g></svg></g></svg></g><g><rect width="129.81852913478676" height="4.470050048172453" y="63.03226168601053" x="265.7014708652132" fill="#096a2e" data-fill-palette-color="accent"></rect><rect width="129.81852913478676" height="4.470050048172453" y="63.03226168601053" x="0" fill="#096a2e" data-fill-palette-color="accent"></rect><rect width="129.81852913478676" height="4.470050048172453" y="54.09216158966562" x="265.7014708652132" fill="#096a2e" data-fill-palette-color="accent"></rect><rect width="129.81852913478676" height="4.470050048172453" y="54.09216158966562" x="0" fill="#096a2e" data-fill-palette-color="accent"></rect></g></svg></g><defs></defs></svg><rect width="395.52" height="129.77153277553026" fill="none" stroke="none" visibility="hidden"></rect></g></svg></g></svg>